# xmcd
#
# Track frame offsets:
#	150
#	20191
#	37966
#	63425
#	85922
#	95360
#	110295
#	126245
#	149401
#
# Disc length: 2350 seconds
#
# Revision: 1
# Processed by: cddbd v1.5.2PL0 Copyright (c) Steve Scherf et al.
# Submitted via: audiograbber 1.83.01
#
DISCID=78092c09
DTITLE=Brainbox - Parts
DYEAR=1972
DGENRE=
TTITLE0=1. A face
TTITLE1=2. You're used to be warmer
TTITLE2=3. Part of me is a part of you
TTITLE3=4. What it's all about
TTITLE4=5. Scotch ballad
TTITLE5=6. Another part
TTITLE6=7. Dilemma
TTITLE7=8. Drum and thunder suite
TTITLE8=9. When i was poor
EXTD=
EXTT0=
EXTT1=
EXTT2=
EXTT3=
EXTT4=
EXTT5=
EXTT6=
EXTT7=
EXTT8=
PLAYORDER=
